<svg version="1" xmlns="http://www.w3.org/2000/svg" width="932" height="932" viewBox="0 0 699.000000 699.000000"><path d="M315.5 44.7c-1.6.2-6.7 1.3-11.2 2.4-4.5 1.1-12.8 2.1-18.5 2.2-10.9.4-9.9.1-32.3 10.2-2.7 1.2-8.2 5.2-12.1 8.9-3.9 3.6-8.9 7.8-11.2 9.4-4.9 3.3-15.3 14.5-17.4 18.7-.8 1.6-2 4.9-2.8 7.2-1.1 3.7-5.3 8.1-7 7.6-.3-.1-.7.6-.8 1.5-.1.9-.3 2.6-.4 3.7-.3 2.3-2.4 4.8-5.4 6.3-1.6.8-2 1.8-1.6 4 .2 1.6-.1 3.3-.7 3.6-.6.4-1.1 1.6-1.1 2.7 0 1-1.1 2.9-2.5 4.1-1.4 1.2-2.5 3-2.5 4s-.4 1.8-.9 1.8c-1.6 0-2.4 3.8-3.4 15.1-.1.9-.7 1.5-1.4 1.2-1.7-.7-3 2.7-1.4 3.6.9.6.9 1.9.2 5.4-.6 2.5-.8 5.9-.5 7.5.3 1.6.1 3.9-.5 4.9-.6 1.1-.8 2.3-.4 2.6.7.8.7 11.6-.1 12.4-1 1 .5 13.6 2.1 16.6.7 1.5 1.2 3.1.9 3.5-.7 1.2 3.2 20 4.8 23.1.7 1.4 2.1 4.4 3.1 6.6.9 2.2 2.4 5.1 3.3 6.5 1.5 2.2 2 3.7 2.3 7.5.1.5-.1 3.1-.5 5.7-.5 4.1-.3 4.6 1.1 4.1 1.1-.4 1.4-.3.9.5-.4.7-.3 1.2.2 1.2s1.3 2.8 1.6 6.2c.4 3.5.8 7.8 1 9.7.2 1.9 0 4.5-.5 5.8-.5 1.5-.5 2.2 0 1.8.6-.3.8.9.4 2.9-.4 2.9-.2 3.6 1.8 4.7 1.3.7 3 1.9 3.8 2.6 2.1 2.2 3.6-.9 2.3-4.5-.6-1.5-1.1-3.4-1.1-4.2-.5-13.3-.9-15.1-3.1-17.5-1.3-1.4-2-2.8-1.7-3.2.4-.3.7-.1.7.6s.5.9 1 .6c.6-.4 1-1.4.8-2.3-.1-1 .2-2.4.7-3.2.5-.8 1-3 1.2-5 .2-1.9 1-8.2 1.9-13.8.8-5.7 1.3-10.6 1-11-.3-.3 0-1.5.8-2.8.8-1.2 1.2-2.4.9-2.8-.9-.9-1-8.9-.1-10.9.5-1 .5-1.7-.1-1.7s-.8-.6-.5-1.4c.3-.8.1-1.7-.5-2-.6-.4-.7-1.5-.1-3 .5-1.3.7-3.2.6-4.2-.2-1.1.2-2.7.8-3.6.7-1.2.7-2.1 0-2.8-1.5-1.5.1-11.2 2-12.2.8-.5 1.3-1.5 1-2.3-.4-.8-.3-2.3.1-3.3.5-.9.9-2.2 1-2.7 0-.6.5-1.9 1-3 .4-1.1 1.9-4.7 3.2-8 3.8-9.4 8.6-18.7 10-19.2.7-.3 1-.9.7-1.5-.3-.5 0-.8.7-.6.8.1 1.5-.1 1.6-.7.3-1.7 4.1-2.4 7.8-1.4 1.9.6 4.6.7 5.8.4 1.8-.5 1.9-.4.7.5-1.1.8-.6.9 2.3.4 2.5-.4 4.8-.1 7.3 1.1 2 .9 3.8 1.4 4.2 1 .3-.3-.4-.8-1.6-1.2-1.2-.3-1.9-1-1.6-1.5.3-.5 1.8-.7 3.2-.3 2.3.6 2.4.5 1.1-1.2-.8-1 .3-.3 2.4 1.4 3.6 3.2 6.7 4.3 6.7 2.4 0-.5 2-.3 4.4.4 4.3 1.3 4.5 1.3 7.7-1.6 2.2-2 4.8-3.1 8.3-3.6 2.8-.4 5.4-.6 5.7-.5.4.1 2.2.3 4 .5 1.9.2 6.3 1.3 9.9 2.4 9.2 2.9 15.8 4.1 20.8 3.9 2.3-.1 4.2.3 4.2.7 0 .5.7.3 1.6-.4.9-.7 3.3-1.4 5.3-1.6 9.8-.5 16.2-1.2 17.2-1.9.6-.3 1.4-.2 1.8.4.3.5 2.2 1.1 4.1 1.3 1.9.2 3.8.7 4.1 1.2.6.8 7.6 1.3 9.4.6.6-.2 1.1 0 1.3.6.1.5-.2 1-.8 1-.5 0-.9.4-.8 1 .3 1.1 3.1.7 3.6-.5.2-.4 1.2-.6 2.2-.3 1.4.4 2 0 2.1-1.3.2-2.8 1.6 3.4 1.9 8.1l.2 4 .9-4c.4-2.2.6-5.4.4-7-.4-2.4-.3-2.6.4-1 .5 1.1 1 3.2 1 4.7.1 1.6.6 2.8 1.2 2.8.7 0 .9-1 .5-2.4-.3-1.4-.1-2.8.5-3.2.9-.5.7-1.1-.6-2-1.7-1.3-1.7-1.4 0-2 1.1-.5 2.2-.1 3 .9.7 1 1.7 1.7 2.4 1.7.6 0 1.1.4 1.1 1 0 .5.7 1 1.6 1 1.2 0 1.5.6 1 2.5-.6 2.2-.4 2.4 2.1 1.9 1.8-.3 3.5.1 4.8 1.1 1.1.9 1.4 1.4.8 1-.7-.3-2.1-.2-3 .4-1.7.9-1.7 1 .2 1.7 3.1 1.1 6.5 4.5 6.5 6.5 0 1 .5 2.1 1 2.4.6.3 1-.1 1-.9 0-.9.4-1.6.9-1.6 1 0 2.7 3.9 3.7 8.5.8 3.6 2.3 5.7 3.5 4.9.9-.5 1.1.5 1.1 9.1 0 4.2.1 4.4.5 1.2.2-2 .7-3.7 1.1-3.7 1.2 0 3.6 4.4 3.9 6.9.1 1.3.7 2.9 1.3 3.5.5.5 1 1.9 1 3 0 1.7-.2 1.8-1 .6-1.8-2.8-1.1 1 .7 4.1 1.2 2 1.4 3.2.7 3.7-2.3 1.5-2.3 4.4-.1 8 1.3 2 2.7 4.4 3 5.2.4.8 1.6 3 2.7 4.8 1.1 1.8 1.8 3.8 1.5 4.3-.4.5 0 .9.8.9 1.5 0 4.3 8.7 5.2 16.5.3 2.7 1 6.8 1.5 9 .4 2.2.8 8.4.8 13.8.1 5.3.4 10.6.7 11.7.3 1.1.2 2-.3 2s-.8 1.5-.6 3.2c.2 1.8.5 5.8.7 8.8.4 6.7 1.3 8.6 3.3 6.9 1.6-1.3 7.3-10.9 7.2-12.3 0-.5.4-1.2.9-1.5 1.7-1.1 6.2-8.4 5.7-9.2-.3-.5-.7-4.3-1.1-8.6-.3-4.3-1-8.1-1.5-8.4-.6-.4-.2-1.5 1.1-2.8l2.1-2.1.1 2.2c.1 1.3.1 2.8 0 3.5-.1.6.3 1.4.9 1.8 1.3.8 1.2-.2-.4-10.4-.7-4.6-1.1-9.3-.9-10.5.4-1.7.3-1.9-.7-.6-.9 1.2-1 .9-.5-1.5.7-3.4 4-6.9 7.3-7.9 1.2-.4 2.2-1.2 2.2-1.7 0-.6.6-.7 1.3-.3.8.6.8.3-.1-.9-1.2-1.4-1-2.1 1.7-4.9l3.2-3.3-1.6 3.7c-.8 2.1-1.5 4-1.5 4.4 0 1.3 3.9-2.8 4.5-4.7.4-1.1 1-1.7 1.5-1.4.5.3 1.1-.8 1.4-2.5.3-1.6.9-4.3 1.2-5.9.3-1.6 1.2-3.2 2-3.5.8-.3 2.4-2.7 3.6-5.2 1.6-3.7 1.9-5.7 1.3-10.1-.4-3-.8-7.1-1-9.1-.1-2-2.7-8.4-5.7-14.2-3-5.8-6.2-12.4-7.1-14.8-1-2.4-2.2-4-2.7-3.7-.5.3-.7-.1-.4-.9.3-.8-.2-2.5-1.1-3.9-.8-1.3-1.8-3.4-2-4.7-.2-1.2-.7-3-1-4.1-.4-1-.2-1.9.2-1.9 1.2 0 7.3 12 7.3 14.2 0 1 .5 1.8 1.1 1.8.6 0 .9.9.6 2-.3 1.1-.1 2 .4 2 2.2 0-.9-11.5-4.3-15.9-1-1.3-2.3-4.1-2.8-6.3-.6-2.1-1.4-3.7-1.8-3.4-.5.3-1.4-.5-2.2-1.7-1.2-2-1.2-2.1.3-.9 1.5 1.3 1.5 1 0-2.7-1.4-3.7-1.4-4.3.1-8.1 1.7-4.3 2-11.2.6-14.5-.5-1.2-.6.1-.3 3.5.3 3.8 0 6.4-1 8.4-1.5 2.7-1.5 2.4-1.4-6.7.1-5.2.6-9 1-8.4 2.2 3.2-.9-4.2-5.2-12-2.6-4.8-6-11.3-7.5-14.5-1.5-3.1-3.7-6.5-4.9-7.5-2.1-1.8-2.1-1.8-.7.2 1.4 1.9 1.4 1.9-.3.6-1-.8-2.4-2.9-3.2-4.7-1.8-4.5-15.4-16.2-16.9-14.7-.3.4-.6.1-.6-.5 0-1.2-6.2-5.3-8.6-5.6-.9-.1-2-.9-2.5-1.7-.5-.8-.9-1.1-.9-.7 0 .5-.9-.1-2.1-1.3-1.4-1.4-3-2-4.8-1.7-1.5.2-3.3-.2-4-.9-.9-1-4.6-1.2-15.4-1-7.8.2-15-.1-16-.6-1.7-.8-1.7-.7-.3 1.5 1.5 2.3 1.5 2.4-1.2 2.2-1.5-.1-4.9-1-7.6-1.9-2.6-.9-5.8-1.9-7-2.2-2.6-.6-41-1.2-45.1-.6zm41.5 3.5c0 .4-.4.8-.9.8-.6 0-1.2-.4-1.5-.8-.3-.5.1-.9.9-.9s1.5.4 1.5.9zm35 1c1.2.8 1.1.8-.4.4-1.4-.5-1.7-.2-1.2 1 .6 1.5.4 1.5-1.6.2-3.2-2.1-3.6-4.2-.7-3.3 1.3.4 3.1 1.2 3.9 1.7zm-28.6-.4c.2.4.1 1.4-.4 2.2-.7 1.1-1.1 1.1-2.4.1-.9-.8-1.6-1.7-1.6-2.2 0-1.1 3.7-1.2 4.4-.1zm3.1.2c.3.5 1.2.7 1.9.4.7-.3 2.1.2 3 1.1.9.9 2 1.3 2.6 1 1.4-.9 1.2.7-.5 2.9-1.4 1.8-4.1 1.4-2.9-.5.3-.6-.5-.8-2-.5-2.7.5-3.5-.1-4.1-3.4-.4-2.1.9-2.8 2-1zm19.5 1c.6 1.1.9 2 .8 2.1-2.7.7-3.3.4-3.3-1.7 0-2.9 1.1-3.1 2.5-.4zm17-1c0 .5-.8 1-1.7 1-1.5 0-1.6-.2-.3-1 1.9-1.2 2-1.2 2 0zm4 1.5c1.4 1.6 1 1.8-1.4.9-.9-.3-1.6-1-1.6-1.5 0-1.4 1.6-1.1 3 .6zm-6.9 1.8c1 .9 2.5 1.7 3.2 1.7.8 0 .7.4-.3 1-1.1.7-.7.8 1.5.6 3-.4 5.5.8 5.5 2.6 0 .5-1 .6-2.1.3-1.5-.5-1.9-.4-1.5.4.5.7-.2 1.1-1.6 1.2-1.3 0-1.7.3-1 .6 1.9.7 1.4 1.9-1.2 3.1-2.1 1-2.6.8-3.1-.8-.4-1.1-1-2-1.5-2-1.7 0-4.9-6.4-4-8.1.5-.9.6-1.9.3-2.3-1.5-1.4 3.9.2 5.8 1.7zm15.5 2.4c-.3.8-.6 1.7-.6 1.9 0 1.2-3.9.2-5.3-1.4-2.2-2.4-1.6-2.9 2.8-2.4 2.7.3 3.5.8 3.1 1.9zm3.7.2c-.2.6.2 1.1.7 1.1 1.9 0 1 2.1-1.2 3-1.9.7-1.3.9 2.7 1 4.6 0 8.6 1.3 7.5 2.3-.3.2-1.8.9-3.5 1.5-1.8.6-2.3 1.1-1.2 1.1 1 .1 2.7-.4 3.8-1 2.2-1.1 5.4.5 4.3 2.2-.3.5.2.9 1 .9 2.9 0 2.7 2-.3 2.6-2.9.6-3 .8-1.4 2 1.7 1.3 1.7 1.3 0 1.4-1 0-3.3-.7-5.2-1.4-2.6-1.1-3.5-1.2-3.6-.3 0 .9-.2.9-.5.1-.3-.7-1.4-1-2.4-.7-1.2.3-2 0-2-.6 0-.7-.5-.9-1.2-.5-.9.5-.8.2.1-.9.8-1 2.1-1.5 3.1-1.2 1.1.3 1.7 0 1.7-1 0-.8-.5-1.5-1-1.5s-.7-.7-.3-1.5c.6-1.8.2-1.9-2.6-.4-1.5.8-1.9.8-1.3-.1.4-.6-.1-2-1-3-1.4-1.6-1.5-1.9-.1-2.7 1.4-.8 1.6-1.2 1.6-3.4 0-.6.6-.9 1.3-.6.6.2 1.1 1 1 1.6zM381 56.1c0 .6-.4.7-1 .4-.5-.3-1-1.1-1-1.6 0-.6.5-.7 1-.4.6.3 1 1.1 1 1.6zm13.3 3.6c-.3.7-.9 1-1.4.7-.5-.3-.7-1-.4-1.5.4-.5.1-.9-.4-.9-.6 0-1.1-.5-1.1-1 0-.6.7-.6 1.9.2 1 .6 1.7 1.7 1.4 2.5zM423 58c0 .5-.5 1-1.1 1-.5 0-.7-.5-.4-1 .3-.6.8-1 1.1-1 .2 0 .4.4.4 1zm-9.4 2.4c.8.8 1.4 1.9 1.4 2.5 0 1.2-3.9 2.5-4.8 1.7-1.1-1.2-1.1-4 .1-4.8 1.6-1 1.6-1 3.3.6zM408 68c0 .5-.4 1-1 1-.5 0-1-.5-1-1 0-.6.5-1 1-1 .6 0 1 .4 1 1zm4 0c0 .5-.7 1-1.5 1s-1.5-.5-1.5-1c0-.6.7-1 1.5-1s1.5.4 1.5 1zm28.8 6.2c1.9 2.9 2.3 4.3 1.4 4.6-.6.2-1 .8-.6 1.3.8 1.3-1 1.1-2.4-.3-.7-.7-2.4-1.2-3.9-1.3-1.4 0-2.8-.6-3.1-1.3-.3-1.1 0-1.2 1.6-.3 2.9 1.5 3.7 1.4 2.2-.4-1.7-2-.1-1.9 2.2.2 1.1 1 1.8 1.2 1.8.4 0-.6-.7-1.4-1.5-1.7-.8-.4-1.2-1-.9-1.5.3-.5.2-.9-.3-.8-1.9.3-3-.2-3-1.4 0-2.9 3.8-1.4 6.5 2.5zM413 72.3c0 .2-1 1.2-2.2 2.3l-2.3 1.9 1.9-2.3c1.8-2.1 2.6-2.7 2.6-1.9zm15.4 6.5c.2.4-1 .8-2.7.9-3 .1-3 .1-.7-.7 1.4-.4 2.6-.8 2.7-.9.1-.1.4.3.7.7zm24.2 5.7c1.4 2.5 2.4 4.9 2 5.2-.7.8-.6.9-3.4-5-2.8-6-2.1-6.1 1.4-.2zm-7.5-.8c1.3 1.6 1.2 1.7-.3.4-1-.7-1.8-1.5-1.8-1.7 0-.8.8-.3 2.1 1.3zm-7.4 3.5c-.3.8-.6.5-.6-.6-.1-1.1.2-1.7.5-1.3.3.3.4 1.2.1 1.9zm13.7 3.3c.3.8.1 1.5-.4 1.5-.6 0-1-.7-1-1.5s.2-1.5.4-1.5.6.7 1 1.5zm6.6 9.5c0 1.3-.1 1.3-1 0-.5-.8-1-2.2-1-3 0-1.3.1-1.3 1 0 .5.8 1 2.2 1 3zm-117.9 13.7c1.3 1.6 1.2 1.7-.3.4-1-.7-1.8-1.5-1.8-1.7 0-.8.8-.3 2.1 1.3zm-16.5 2.5l2.9 3.3-3.2-2.9c-3.1-2.8-3.8-3.6-3-3.6.2 0 1.6 1.5 3.3 3.2zm77.4 38.5c2.8 2.5 2.5 3.7-.5 1.7-1.4-.9-2.5-2-2.5-2.5 0-1.3.7-1.1 3 .8zm6.6 4.7c1 .8 1.6 1.7 1.2 2.1-.4.4-1.7-.2-2.9-1.4-2.6-2.4-1.3-2.9 1.7-.7zm73.8 21.6c-.6.5-2.4-2.1-2.4-3.4 0-.6.6-.1 1.4 1 .8 1 1.2 2.1 1 2.4zm7.6 10.9c-.1 1.2-.5 1.1-2-.8-1.1-1.3-2-3.1-2-4 .1-1.2.5-1.1 2 .8 1.1 1.3 2 3.1 2 4zm.6 17.4c.5 4.3.3 5.5-1.1 6.7-1.6 1.4-1.7 1.2-1-2.9.5-2.8.4-4.1-.3-3.7-1.1.7-2.2-3.9-2.2-9.3v-3.6l2 3.7c1.1 2.1 2.3 6.1 2.6 9.1zm-.4 9.9c-.7.7-1.2.8-1.2.2 0-.6.3-1.4.7-1.7.3-.4.9-.5 1.2-.2.2.3-.1 1.1-.7 1.7zM204 270c0 .5-.5 1-1.1 1-.5 0-.7-.5-.4-1 .3-.6.8-1 1.1-1 .2 0 .4.4.4 1z"/><path d="M396.5 52.9c-.3.5-.2 1.2.3 1.5.5.3.9-.1.9-.9 0-1.7-.3-1.9-1.2-.6zM429 67c0 .5.5 1 1.1 1 .5 0 .7-.5.4-1-.3-.6-.8-1-1.1-1-.2 0-.4.4-.4 1zM359.5 155.1c-.4.6-.5 1.2-.2 1.5.2.3.7-.2 1-1.1.7-1.7.1-2-.8-.4zM370.2 159c0 1.4.2 1.9.5 1.2.2-.6.2-1.8 0-2.5-.3-.6-.5-.1-.5 1.3zM374.7 159.4c-.4 1-.1 1.3.8.9.8-.3 1.2-.9.9-1.4-.7-1.2-1.1-1.1-1.7.5zM396 159c0 .5.5 1 1.1 1 .5 0 .7-.5.4-1-.3-.6-.8-1-1.1-1-.2 0-.4.4-.4 1zM391.1 166.6c0 1.1.3 1.4.6.6.3-.7.2-1.6-.1-1.9-.3-.4-.6.2-.5 1.3zM402.5 166c.3.5 1.1 1 1.6 1 .6 0 .7-.5.4-1-.3-.6-1.1-1-1.6-1-.6 0-.7.4-.4 1zM414.6 187.7c.7.4 1.4 1.7 1.7 2.8.5 1.6.5 1.5.4-.4-.1-1.4-.9-2.6-1.7-2.8-1-.3-1.1-.2-.4.4zM423.1 190.6c0 1.1.3 1.4.6.6.3-.7.2-1.6-.1-1.9-.3-.4-.6.2-.5 1.3zM423.2 198c0 1.4.2 1.9.5 1.2.2-.6.2-1.8 0-2.5-.3-.6-.5-.1-.5 1.3zM425 206.5c0 .8.4 1.5 1 1.5.5 0 .7-.7.4-1.5-.4-.8-.8-1.5-1-1.5-.2 0-.4.7-.4 1.5zM387 234.6c-2.5 1.2-7.1 2.6-10.2 2.9-4.4.5-5.8 1.1-6.3 2.6-.4 1-.9 2-1.3 2-.4.1-1.6.3-2.7.4-1.1.2-3.3 1-5 1.9-1.6.9-3.7 1.6-4.6 1.6-.9 0-1.9.9-2.2 2-.3 1.1-.1 1.8.4 1.4 1.6-.9 1 .5-1.1 2.6-2.3 2.3-2.6 4.9-.7 5.5.6.2 3.2.9 5.6 1.5 5.8 1.5 5 2.3-3.8 3.6-3.8.5-6.2 1.7-8.6 4.1-1.4 1.4-1.8 1.4-2.6.2-.7-1.1-.9-1.1-.9.3 0 .9-.3 2.4-.7 3.4-.5 1.4-.3 1.6 1.2 1.1 1.5-.6 1.6-.5.5.8-.7.9-1 1.8-.6 2.2.3.3.6.1.6-.5 0-2.2 2-1.2 2.1 1 .1 3.8 3.3 8.2 7.3 10.1 2 1 3.4 2.2 3.1 2.7-.3.6.3 1 1.4 1 1.2 0 2.1.3 2.1.7 0 .5 1.5.9 3.3 1 1.7.1 4.1.7 5.2 1.2 1.1.5 4 1.6 6.5 2.6s5.4 2.1 6.5 2.6c4.3 1.8 10.2 2.8 14.7 2.5 4.8-.3 8.2-2.1 7.2-3.7-.3-.5.7-.9 2.3-1 1.5 0 2.2-.3 1.5-.6-1-.4-1-.8-.1-2 1-1.2 1-1.7-.2-2.5s-1.2-.9.1-.5c.8.2 1.5 1.2 1.6 2.3.2 4.6.5 5.4 1.4 5.4.6 0 1-.7 1-1.5 0-.9 1-1.5 2.8-1.6 4.9-.2 8.7.3 9.8 1.2.8.6 1.4.4 1.8-.7.5-1.3.9-1.4 2-.5 1 .9 1.6.9 2.1.1s1.1-.8 2.1.1c.7.6 1.1 1.5.8 2-.3.5.1.6.9.3 1.8-.7 3-6.3 1.7-7.8-.6-.8-.4-2.2.6-4.1.8-1.5 1.3-2.9 1.2-2.9-.2-.1-1.5-.8-3-1.5-2.1-1.1-3-1.1-4.2-.2-1.8 1.5-5.6-.5-5.6-2.9 0-1.3-.1-1.3-1 0-.6 1-1 1.1-1 .2 0-.6-.9-1.2-2-1.2s-2-.3-2-.6c0-1 2.8-3.4 3.9-3.4 1.8 0 1.2-1.8-.6-2.3-1.5-.4-1.5-.5.2-.6 1.1-.1 3.4-1.2 5-2.6 2.8-2.4 2.9-2.6 1.2-3.9-2.2-1.7-.6-3 2.6-2l2.2.6-2.2-1.9c-1.3-1.1-2-2.3-1.6-2.7.3-.3-.1-.6-.9-.6-1.7 0-4.1-5-4.3-8.5 0-1.3-.8-2.1-2.3-2.3-1.7-.3-2.1-.8-1.7-2.2.6-1.9-1.9-3.5-3.7-2.3-.6.3-.8.1-.5-.4.8-1.2-2-2.6-3.4-1.8-.4.3-2.9-.3-5.3-1.5-2.5-1.1-5.2-2-6-2-.8 0-1.8-.5-2.1-1-.4-.6-1-.8-1.5-.5-.5.3-1.9.1-3.2-.4-1.7-.6-3.4-.3-6.8 1.5zm-11 5.4c0 .5-.5 1-1.1 1-.5 0-.7-.5-.4-1 .3-.6.8-1 1.1-1 .2 0 .4.4.4 1zm10.3 17c.7 0 .6.5-.3 1.1-1.1.7-.1.8 3.3.3 2.8-.4 4.7-.2 4.7.3 0 1.6-11 3.5-18.5 3.1-6.6-.3-6.9-.4-4.5-1.7 3.3-1.9 11.2-4 12.8-3.5.8.2 1.9.4 2.5.4zm22.7 5.4c0 .3-.4.8-1 1.1-.5.3-1 .1-1-.4 0-.6.5-1.1 1-1.1.6 0 1 .2 1 .4zm6.7.2c-.3.3-1.2.4-1.9.1-.8-.3-.5-.6.6-.6 1.1-.1 1.7.2 1.3.5zM386 267c0 .5-.4 1-1 1-.5 0-1-.5-1-1 0-.6.5-1 1-1 .6 0 1 .4 1 1zm-12 1.5c0 .8-.4 1.5-1 1.5-.5 0-1-.7-1-1.5s.5-1.5 1-1.5c.6 0 1 .7 1 1.5zm-5 .5c0 .5-.4 1-1 1-.5 0-1-.5-1-1 0-.6.5-1 1-1 .6 0 1 .4 1 1zm26.4 1.1c-.3.5-1.1.9-1.9.9-.7 0-1.5.6-1.8 1.2-.2.7-.7 1-1.1.6-1.3-1.2 1.6-4.6 3.5-4.1 1.1.3 1.6.9 1.3 1.4zM352 275c0 .5-.7 1-1.5 1s-1.5-.5-1.5-1c0-.6.7-1 1.5-1s1.5.4 1.5 1zm56 1.5c1 .6.9.9-.1 1.6-.8.4-1.9.3-2.8-.4-1.1-.9-1.5-.9-1.9.1-.2.7-1 1.9-1.8 2.6-1.2 1.3-1.1 1.5.8 1.8 1.3.2 2.3 1 2.3 1.8 0 1.1 1 1.4 3.2 1.3 1.8-.2 3.4.1 3.7.5.3.5-3.6 1.4-8.6 2.2-7.7 1.1-9.1 1.1-9.9-.1-.6-1-.9-1-.9-.2 0 1.6-4.2 1.7-9.2.2-3.8-1-5.2-2.9-2.2-2.9 1.4 0 1.4-.2 0-2.2-2.3-3.2-2-3.8 1.3-3.2 1.6.4 3.2.1 3.5-.5.4-.6 1.9-1.1 3.4-1.2 1.5 0 4.2-.6 6.1-1.3 3.7-1.3 11-1.4 13.1-.1zm-4 13.9c0 .2-.7.7-1.6 1-.8.3-1.2.2-.9-.4.6-1 2.5-1.4 2.5-.6zm30 .5c0 .6-.4 1.3-1 1.6-.5.3-1-.1-1-.9 0-.9.5-1.6 1-1.6.6 0 1 .4 1 .9zm-37.7.8c-.7.2-1.9.2-2.5 0-.7-.3-.2-.5 1.2-.5s1.9.2 1.3.5z"/><path d="M381.8 235.7c.7.3 1.6.2 1.9-.1.4-.3-.2-.6-1.3-.5-1.1 0-1.4.3-.6.6zM421.5 242c.3.5 1 1 1.6 1 .5 0 .9-.5.9-1 0-.6-.7-1-1.6-1-.8 0-1.2.4-.9 1zM251.8 244.7c-1 .2-1.8.8-1.8 1.2 0 .4-1.8 1.3-4 2-2.4.7-4 1.8-4 2.7 0 .8-.6 1.4-1.3 1.2-2-.5-5.6 3.7-4.6 5.3 1.5 2.4 1 3.4-.7 1.3-.8-1-1.3-1.3-.9-.7.3.7.1 2.2-.5 3.4-1.1 1.9-1 2 1.2 1.4 1.2-.4 3.4-1.2 4.8-1.8 1.4-.5 4.2-.9 6.3-.8 2.2.2 3.7-.2 3.7-.9 0-.6.5-.8 1-.5.6.4 1.8.1 2.7-.7 1.1-.9 1.4-.9 1-.1-1.3 2.2 9.2 3.7 11.4 1.7 1.3-1.2 2.5-1.3 6.2-.5 9.3 2.1 21.1 1.4 27-1.5 1.5-.8 2.7-1.6 2.7-1.8 0-.2-1.6-1.1-3.5-2-2-1-3.3-2.1-3-2.7.4-.5-.1-.9-.9-.9-.9 0-1.6-.5-1.6-1 0-.6-2.5-1-5.9-.9-3.2.1-6.4-.2-7.1-.6-.6-.4-4.2-.7-7.8-.7-6.2 0-6.5 0-4.2-1.3 3.3-1.9 2.2-1.8-3 0-5.1 1.8-12.3 1.6-11.5-.3.2-.6.3-1.1.2-1.1-.1.1-1 .3-1.9.6zM248 256c0 .5-.5 1-1.1 1-.5 0-.7-.5-.4-1 .3-.6.8-1 1.1-1 .2 0 .4.4.4 1zM471 245.3c-1.7.9-2.5 2.1-2.4 3.7.2 4.6 1.6 13.5 2.3 14.5.3.5.6 2.6.5 4.5-.1 1.9.3 4.7.8 6.3.8 2 .7 3.1-.2 4.2-.8 1-.9 1.5-.1 1.5 1.9 0 2.6-5.1 2.6-18-.1-7.6.3-12.8 1-13.2.6-.5.5-.8-.3-.8-.9 0-1.1-.7-.7-2 .7-2.3 0-2.5-3.5-.7zM274 264.5c-12 1.5-17.9 2.9-23.1 5.5-3.6 1.9-4.9 5-2 5 3.8 0 9-1.3 8.5-2.1-.6-1 5.3-4.9 7.4-4.9.6 0 1.2.6 1.2 1.3 0 .7 1.1 2.9 2.5 5 1.4 2 2.3 4.2 2 4.7-.3.5.7.9 2.2.9 1.5 0 3.9.1 5.3.3 1.4.3 3.2.1 4.2-.4 1.1-.5 2.6.1 4.8 2.2 3.8 3.5 3.1 3.4 6.6 1.5 1.6-.8 2.3-1.5 1.7-1.5-2.6 0-1.2-2.1 2.2-3.6 2.6-1.1 3.5-2 3.5-3.9 0-1.3-.5-2.7-1.1-3-.6-.4-.8-1.3-.5-2 .3-.8-.1-1.8-.7-2.3-1.3-1-11.9-4.3-13.4-4.1-.4.1-5.5.7-11.3 1.4zm-2 5.5c0 1.3-.7 2-2 2s-2-.7-2-2 .7-2 2-2 2 .7 2 2zm12-1c0 .5-.4 1-1 1-.5 0-1-.5-1-1 0-.6.5-1 1-1 .6 0 1 .4 1 1zm5.4 4.2c1.4.9.7 1.5-2.9 2.4-2.9.7-3 .7-1.2-1.3.9-1.1 1.7-2.6 1.8-3.4 0-1.1.2-1.1.6.1.3.8 1.1 1.8 1.7 2.2zM430 274c0 .5.5 1 1 1 .6 0 1-.5 1-1 0-.6-.4-1-1-1-.5 0-1 .4-1 1zM435.8 279.7c.7.3 1.6.2 1.9-.1.4-.3-.2-.6-1.3-.5-1.1 0-1.4.3-.6.6zM468.1 282.7c1.5 5.7 1.9 6.6 2.5 6 1.1-1-.8-9.7-2.1-9.7-1 0-1.1.8-.4 3.7zM470 294c0 .5.5 1 1 1 .6 0 1-.5 1-1 0-.6-.4-1-1-1-.5 0-1 .4-1 1zM472.6 295.5c-.3.9-.6 2.2-.5 2.8 0 .7.5.1 1-1.2s.8-2.6.5-2.8c-.2-.2-.6.3-1 1.2zM416 296.4c0 .2.7.7 1.6 1 .8.3 1.2.2.9-.4-.6-1-2.5-1.4-2.5-.6zM420.5 297c.3.5 1.1 1 1.6 1 .6 0 .7-.5.4-1-.3-.6-1.1-1-1.6-1-.6 0-.7.4-.4 1zM470.1 297.6c0 1.1.3 1.4.6.6.3-.7.2-1.6-.1-1.9-.3-.4-.6.2-.5 1.3zM470.1 302.7c0 2.5.1 2.6.9.8 1.2-2.7 1.2-3.5 0-3.5-.5 0-1 1.2-.9 2.7zM465 302.4c0 .8-.5 1.6-1.2 1.8-.9.3-.9.6 0 1.2.7.4 1.2.2 1.2-.4 0-.6.4-.9.9-.6.5.4.7-.3.4-1.4-.6-2.3-1.3-2.6-1.3-.6zM349.8 311.7c-3.4.5-3.7 3.1-.8 5.6 1.1.9 2 1.4 2 1 0-.4.5-.2 1.2.5 1.5 1.5 4.8 1.6 4.8.1 0-.5.5-.7 1.1-.3.6.3 1.5 0 2-.7 1-1.6 1.2-3.5.3-2.6-.4.4-2-.5-3.6-1.8-1.6-1.4-3.3-2.4-3.6-2.4-.4.1-1.9.4-3.4.6z"/><path d="M362.5 312.1c-.4.5-.1 1.7.7 2.6 1 1.3 1.1 1.7 0 2.1-.8.2-1 .8-.4 1.5.5.7 1.3 3.7 1.6 6.8.7 5.4.6 5.7-2.4 8.3-3.5 2.9-8 3.5-8 1.1 0-1.8-3.5-3.3-8.2-3.6-3.7-.3-7.6 1.6-12.8 6.1l-3.4 3h3.8c3.3 0 3.7.2 3.1 2-.5 1.6-.3 1.9 1.1 1.3 1.3-.5 1.5-.2.9 1.6-.4 1.2-.1 2.6.7 3.4.7.8 2.2 2.6 3.3 4 1.1 1.5 2.5 2.7 3.2 2.7.7 0 1.3.4 1.3.9 0 1.1 3.9 2.6 4.6 1.8.3-.2 0-1.6-.5-3.1-.6-1.4-.7-2.6-.2-2.6 1 0 2.5 3 2.2 4.4-.1.5.1 1.6.4 2.5.5 1.2.8 1.2 1.4.3.4-.7 2.5-1.4 4.7-1.6 3.1-.3 4-.8 4.2-2.5.2-1.3 1.1-2.1 2.3-2.1 1.5 0 1.9.7 1.9 3.4 0 3.7 2.3 5.4 4.6 3.5 1.1-.9 1.4-.8 1.4.5 0 .9-.5 1.6-1.1 1.6-.7 0-.9 1-.6 2.6.4 2.5.4 2.5-5.2 1.9-3.1-.4-7.7-1.4-10.4-2.2-2.6-.9-6.8-1.6-9.5-1.7-4-.1-4.8.2-5.7 2.1-1.1 2.6-2.5 3-2.5.8 0-1.8-1.6-2-2.3-.3-.3.8-.6.6-.6-.4-.1-1.2-.6-1.5-1.7-1.1-1.1.4-1.2.9-.5 1.6 1.8 1.8 1.3 3.9-.8 3.2-1.2-.4-2.1 0-2.5 1.1-.6 1.5-2.1 1.6-12.6 1.2-6.6-.3-11.9-.4-11.8-.3.7.5 17.6 3.5 20.3 3.6 1.7 0 5.8 0 9.3-.1 3.5-.1 6.9.3 7.6.9.7.6 1.6.8 1.9.4.4-.3.7-.1.7.5 0 .7 1.2 1.2 2.6 1.2 2.9 0 2.8 1.8-.2 3.4-5.1 2.9-7.4 4.9-7.4 6.5 0 3.6 10.4 1.9 21-3.4 3.6-1.8 5.5-2.3 6-1.6.4.8 1.3.5 2.5-.9 1-1.1 2.2-2 2.7-2 1.3 0 .9 2.2-.9 4.2-2.3 2.5.1 2.3 3.6-.3 2.9-2.2 6.8-2.2 6.3-.1-.1.7.4 1.2 1.2 1.2.9 0 1.2.7.9 1.9-.3 1.2.3 2.6 1.5 3.7 2 1.6 2 2 .6 5.3-.9 2-1.8 5.8-2 8.6-.3 2.7-1.1 5.6-1.8 6.5-1.7 2.1-1.8 5.6 0 7.1 1.1.9 1.4.7 1.4-1 0-1.2.5-1.9 1-1.6.6.3 1-.4 1.1-1.7 0-1.3.3-1.7.6-1 .2.6.9.9 1.5.6.5-.3.2-1.5-.9-2.7-1.7-2-1.7-2 .2-1.5 1.7.4 2.1 0 2-1.8 0-1.2-.3-2.6-.7-3-.5-.4-.8-2-.8-3.6 0-2.1.5-2.8 2-2.8 2.2 0 2.7-1.5.8-2.3-.9-.4-.8-.6.2-.6 2.8-.2 4.5-3.4 4.4-8.4 0-2.6-.6-5.3-1.2-5.9-1.4-1.4-1.6-3.8-.3-3.8 1.1 0 2.5-3.9 1.7-4.7-.3-.3-1.2 0-2.1.7-1.2 1-1.5 1-1.5 0 0-.7.6-1.8 1.4-2.4 1.3-.9 1.3-1.3.1-2.3-1.1-1-1.5-.9-2 .8-.5 1.6-1 1.8-2.1.8-1.8-1.5-1.8-2.9 0-2.9.8 0 1.7-1.4 2.1-3 .4-1.7 1.1-3 1.6-3 1.3 0 1.1 1.4-.3 2.8-.9.9-.7 1.6.7 3.2 2.2 2.4 6.4 2.4 5.8-.1-.3-.9 0-2 .7-2.4.8-.5.6-1.3-.7-2.8-1.7-2-1.7-2 .2-1.3l2 .7-2-2c-3.4-3.4-4.5-5-4.5-6.3 0-.7-1-1.9-2.1-2.7-1.9-1.1-2.1-1.1-1.6.3.4 1-.1 2-1.3 2.6-1.5.8-1.8 1.7-1.3 4 .7 3.6-.5 3.8-3.2.8-1.2-1.5-2-1.8-2.3-1-.2.7-1.6 1.2-3.2 1.2-2 0-2.9-.6-3.4-2.3-.8-3.2-.7-3.9.5-3.1 1.2.7 2.9-1.3 2.9-3.6 0-1.2-.2-1.2-.9-.2-1 1.7-3.4 1.2-4.3-1-.4-1.1-1.3-1.5-2.3-1.2-.8.3-1.5.1-1.5-.5s.5-1.1 1-1.1c.6 0 1-1 1-2.3-.1-2-.2-2.1-1.4-.5-.7 1-2 1.8-2.9 1.8-.9 0-1.4.6-1.2 1.3.4.9-.7 1.3-3.7 1.3-4.2.2-4.2.1-2-1.6 3.1-2.5 2.8-3.3-1-2.6l-3.3.6 2.9-1.4c1.7-.8 3-2.2 3.1-3.4.4-5.3 5.6-8.5 8.7-5.4.7.7 1.8 1.2 2.5 1.2s1.3.5 1.3 1.1c0 .8.4.8 1.5-.1.8-.6 1.9-.9 2.5-.5.5.3 1-.1 1-1s.9-2.8 2-4.2c1.1-1.4 2-3.1 2-3.7-.1-2.3-3.9-5.6-8-6.8-2.3-.7-4.5-1.9-4.7-2.6-.3-.6-1.1-1.2-1.9-1.2-.8 0-1.4-.5-1.4-1 0-.6-.5-1-1.1-1-.6 0-.7.6-.2 1.2.4.7-.5.5-1.9-.4-1.7-1.2-2.9-1.4-3.3-.7zm-2.8 31.5c-.3.3-1.2.4-1.9.1-.8-.3-.5-.6.6-.6 1.1-.1 1.7.2 1.3.5zM358 351c-.6 1.1-1.2 2-1.4 2-.2 0-.2-.9.1-2 .3-1.1.9-2 1.5-2 .5 0 .4.9-.2 2zm34.7 3.1c.2 1.6-.1 1.9-.9 1.1-.5-.5-.7-1.5-.4-2.1 1-1.5 1.2-1.4 1.3 1zm-21.7.9c0 .5-.4 1-1 1-.5 0-1-.5-1-1 0-.6.5-1 1-1 .6 0 1 .4 1 1zm5 1c0 .5-.4 1-1 1-.5 0-1-.5-1-1 0-.6.5-1 1-1 .6 0 1 .4 1 1zm14 4.7c0 .5-.5 1.5-1 2.3-.8 1.2-1 1.1-1-.8 0-1.2.5-2.2 1-2.2.6 0 1 .3 1 .7zm-3 2.2c0 .6-.4 1.3-1 1.6-.5.3-1-.1-1-.9 0-.9.5-1.6 1-1.6.6 0 1 .4 1 .9zm-52 8.1c0 .5-.4 1-1 1-.5 0-1-.5-1-1 0-.6.5-1 1-1 .6 0 1 .4 1 1zM452.5 316c.3.5.8 1 1.1 1 .2 0 .4-.5.4-1 0-.6-.5-1-1.1-1-.5 0-.7.4-.4 1zM308.3 332.1c-1.8.5-3.5 1.3-3.8 1.8-1.1 1.9 1.2 1.9 6.3.2 3.7-1.3 4.8-2 3.7-2.5-1.9-.7-2-.7-6.2.5z"/><path d="M384 346c0 .5 1.1 1 2.5 1s2.5-.5 2.5-1c0-.6-1.1-1-2.5-1s-2.5.4-2.5 1zM387 350c0 1.1.5 2 1 2 .6 0 1-.9 1-2s-.4-2-1-2c-.5 0-1 .9-1 2zM276.6 366c-1.7 5.4-1.5 5.7 2.4 5.4 2.1-.1 4.7-.7 5.9-1.3 1.3-.8 2.2-.8 2.6-.1.4.6 1.1.7 1.7.4 1.7-1.1-.6-2.4-5.7-3-2.8-.4-5.3-1.2-5.7-1.8-.4-.7-.9-.5-1.2.4zM356.3 390.7c-.7.2-1.3 1.1-1.3 1.8 0 1.4-1.7 1.5-3.8.1-.7-.4-2.4-.5-3.7-.2-1.3.3-2.7.2-3-.4-.3-.5-1.2-1-1.8-1-.7 0-.6.4.3 1 1 .6 1.1 1 .3 1-.7 0-1.3.6-1.3 1.4 0 1.1 1 1.4 3.7 1.1 2.1-.2 4.6.1 5.7.7 1.5.8 2.1.8 2.4-.1.3-.8.8-.9 1.6-.1 1.7 1.3 5.1-2.3 4.3-4.5-.7-1.5-1.3-1.7-3.4-.8zM321 393.7c0 .7.3 1.3.8 1.4.4.1 2.5.3 4.7.5s4.1.8 4.3 1.3c.4 1.3 2.5-.6 3.5-3.1.5-1.5-.2-1.7-6.4-1.5-4.7.1-6.9.6-6.9 1.4zM336.3 392.7c-.7.3-1.3 1.6-1.3 3v2.6l2.1-2.4c1.7-1.9 2.2-2.1 2.9-.9.6 1 1 1.1 1 .3 0-1.5-3.1-3.2-4.7-2.6zM390.5 399.9c-.3.5-.1 1.2.5 1.6.5.3 1-.1 1-.9 0-1.8-.6-2.1-1.5-.7zM434.2 404c-1.2 2.3-2.2 4.6-2.2 5.1s-1.7 3.2-3.7 5.8c-2.1 2.7-5.5 7.3-7.6 10.3-8.4 11.9-26.3 27.9-33.7 30.3-1.1.4-2 1.1-2 1.6s-.5.9-1.1.9c-.6 0-2.2.9-3.6 2s-3.4 2-4.3 2c-1 0-2.3.7-3 1.5-.7.8-1.8 1.5-2.4 1.5-.6 0-.4-.5.4-1 2.1-1.3.2-1.1-4 .5-1.9.7-2.8 1.4-2 1.5 2 .1-5.7 3.1-9.7 3.7-1.8.3-3.3.9-3.3 1.3 0 .7-1.8 1.2-9 2.6-.8.1-4.6 1-8.5 1.9-3.8.9-9 1.8-11.5 2.1-2.5.2-6.3.7-8.5 1.1l-4 .7 5.5.6c3.5.4 9.1 0 15.5-1.2 5.5-1 11.4-2.1 13-2.4 7.8-1.4 24.3-3.6 26.8-3.5 1.5 0 3-.6 3.3-1.3.3-.8 1.4-1.2 2.6-.8 1.3.3 2.4-.1 3-1.2.5-.9 1.5-1.6 2.3-1.6 1.9 0 6.6-4.5 5.7-5.5-.4-.4.3-.4 1.6-.1 1.3.5 2.2.3 2.2-.3s.7-.8 1.5-.5c.9.4 1.9-.3 2.6-2 .7-1.4 1.7-2.6 2.3-2.5 2.7.3 3.4-.3 4-3.6.4-2 1.3-3.5 2.1-3.5s1.9-.8 2.4-1.8c.6-.9 1.1-1.3 1.1-.8s.8-.1 1.9-1.3c1.1-1.3 2.5-1.9 3.5-1.5 1.7.7 5-2.1 4.2-3.5-.4-.5 0-1.2.6-1.4.8-.3.6-.6-.4-.6-1.4-.1-1.2-.7 1.2-3 1.7-1.5 3-3.4 3-4.1 0-.7.7-1 1.6-.6.8.3 1.2.2.9-.4-.3-.5 0-2 .7-3.2.6-1.3 1.1-3 1-3.9-.3-1.7 1.2-3.2 4.2-4.3 1.3-.4 1.7-.2 1.3.8-.4 1-.1 1.3.9.9 1.7-.6 1.7-1.3 0-3.5-.7-1-1.7-1.4-2.2-1-.5.4.1-.5 1.4-1.9 1.2-1.4 2.2-3.1 2.2-3.7 0-.7.5-1.2 1-1.2.6 0 1-.8 1-1.8s.5-2.3 1-2.8c.6-.6.7-2 .2-3.3-.7-2-.9-1.9-3 1.9zM333.5 402.8c-1.8 1.8 3 4.7 8.3 5 2.3.2 3.2-.2 3.2-1.3 0-.9-.4-1.3-1-1-.5.3-1-.1-1-1 0-2.4-2.9-3-4.5-.9-1.2 1.6-1.4 1.6-1.5.3 0-1.5-2.4-2.2-3.5-1.1zM399 403c0 .5.5 1 1.1 1 .5 0 .7-.5.4-1-.3-.6-.8-1-1.1-1-.2 0-.4.4-.4 1zM348.6 405.5c-.3.8-.1 1.5.4 1.5.6 0 1-.7 1-1.5s-.2-1.5-.4-1.5-.6.7-1 1.5zM360 414.3c0 2.3-.5 3.7-1.3 3.7-.7 0-2.4 1.3-3.9 3-2.4 2.8-2.5 3-.6 3 1.1 0 2.2-.8 2.5-2 .6-2.1 2.8-2.7 3.8-1 .3.5-.2 1-1.1 1-1 0-1.4.3-1.1.7.4.3.2 1.2-.4 1.9-.8 1-.7 1.9.4 3.4.9 1.3 1.7 1.7 2.1 1.1.5-.7 1.5-.5 3.2.5 3 2 3.3 1.8 3.7-3.4.3-4 1.7-7.2 1.7-3.9 0 .9.5 1.7 1 1.7.6 0 1-1.1 1-2.5s.5-2.5 1-2.5c.6 0 1 1 1 2.1 0 1.8.2 1.9 1.5.9 1.1-.9 1.5-.9 1.5-.1 0 .9.5.9 2.1.1 1.9-1.1 1.9-1.3.5-2.9-.9-1-1.3-2.1-.9-2.4.3-.4.1-.7-.5-.7-.7 0-1.2-1.1-1.2-2.5 0-2.8-.8-3.1-3.5-1.1-1.1.8-1.6 2-1.2 2.9.4 1.1-.2 2.2-1.6 3.2-2.1 1.4-2.2 1.4-2.9-.7-.6-2.2-.6-2.1-.7.4-.1 1.5-.6 3-1.2 3.4-.8.5-1-.3-.7-2.5.2-1.7.1-3.1-.4-3.1s-.7-.4-.4-.9c.3-.4-.3-1.6-1.4-2.6-2-1.8-2-1.7-2 1.8zm5.7 13c.4.7 0 .8-1.1.4-1-.4-2.2-.7-2.7-.7s-.9-.4-.9-.9c0-1.2 3.8-.2 4.7 1.2z"/><path d="M436.1 413.3c-.1 1.9-.5 2.6-1.3 2.1-.7-.5-.8-.3-.3.5 1.1 1.9 2.7-.3 2.2-3-.4-2.2-.4-2.1-.6.4zM352.2 417c-1.3 2.1-.6 2.5 1.8 1 1-.6 1.2-1.2.5-1.9s-1.4-.4-2.3.9zM435.1 419.6c0 1.1.3 1.4.6.6.3-.7.2-1.6-.1-1.9-.3-.4-.6.2-.5 1.3zM433 423.8c0 .5.7.9 1.5.9s1.5-.4 1.5-.9c0-.4-.7-.8-1.5-.8s-1.5.4-1.5.8zM351 427.5c0 .8.4 1.5 1 1.5.5 0 .7-.7.4-1.5-.4-.8-.8-1.5-1-1.5-.2 0-.4.7-.4 1.5zM370.6 426.9c-.4.7-.5 1.5-.2 1.8.9.9 1.9-.4 1.4-1.8-.4-1.1-.6-1.1-1.2 0zM435 426.8c0 .6.6 1.2 1.3 1.5.7.3.2.9-1.3 1.5-1.4.6-2 1.1-1.4 1.1 1.3.1.6 5.3-.8 6.2-.5.3-1 1.6-1.3 2.9-.2 1.2-1 3-1.7 3.9-3.3 4.1-4 6.2-2.6 7.8 1 1.3 1 1.7.1 2-.8.3-1 1.5-.7 3.2.5 2.2 0 3.2-2 4.9-1.6 1.2-2.4 2.6-2 3.5.3.8.1 1.8-.5 2.2-.6.3-1.1.1-1.1-.4 0-.6-.4-1.1-1-1.1-.5 0-1 .9-1 2.1 0 1.1-.5 2.9-1 4-.8 1.5-.7 1.9.5 1.9 1.9 0 2 1.6 0 2.4-.9.3-1.2 1.2-.8 2.1.4 1.1.8 1.3 1.3.6 1.2-2.1 7.6-1.6 10 .7 1.3 1.2 2.8 1.9 3.4 1.6.6-.3.3.1-.6.9-1 .8-1.8 2.1-1.8 2.9 0 .8-.6 2-1.2 2.8-.7.8 2.6-2.4 7.4-7 4.8-4.7 11.6-10.2 15-12.3 8.5-5.1 10.5-6.6 15.7-11.4 4.4-4.1 4.5-4.3 2-4.3-1.4 0-5.3-1.7-8.7-3.8-7-4.3-22.2-17.7-22.2-19.6 0-.8-.7-1.9-1.5-2.6-.9-.8-1.5-.8-1.5-.2zm-5 22.2c0 .5-.4 1-1 1-.5 0-1-.5-1-1 0-.6.5-1 1-1 .6 0 1 .4 1 1zM426 430c0 .5.5 1 1 1 .6 0 1-.5 1-1 0-.6-.4-1-1-1-.5 0-1 .4-1 1zM378.7 435.7c-1.2 1.1-.8 2.3.7 2.3.7 0 1.9-.7 2.6-1.5 1-1.2.9-1.5-.7-1.5-1.1 0-2.3.3-2.6.7zM373 440c-1.3.8-1.2 1.1.4 2.3 1.1.8 1.6 1.9 1.2 2.5-.9 1.5-.3 1.5 3 0l2.7-1.3-2.4-.5c-1.4-.4-2.3-1.3-2.3-2.3.2-1.9-.4-2.1-2.6-.7zM379 440c-1.8 1.2-.2 1.2 2.5 0 1.3-.6 1.5-.9.5-.9-.8 0-2.2.4-3 .9zM385.2 441.2c-.6.6-1.2 1.9-1.2 2.7 0 1.3.2 1.3 1.6-.1.9-.9 1.5-2.1 1.3-2.7-.3-.9-.8-.8-1.7.1zM367.1 442.6c0 .7-1.2 1.5-2.6 1.8-1.4.4-2.5 1.1-2.5 1.6 0 2-3.1 1-3.9-1.3l-.9-2.2-1.2 2.7c-1.3 2.7-4 4.6-4 2.8 0-.6-1.5-.9-3.2-.9l-3.3.1 3 .7c3.6.8 1.9 2.3-2.3 2.1-5.3-.4-7.2 0-7.2 1.5 0 3.4 8.5 5.3 13.4 3 2-1 4.2-1.5 5.1-1.2 2.2.9 7.5-1.3 7.5-3 0-1.3.3-1.3 1.5-.3 1 .9 1.5.9 1.5.1 0-.6 1-1.1 2.3-1.1 1.8 0 1.9-.2.7-1-1.3-.8-1.2-1 .3-1 1.1 0 1.7-.5 1.4-1.3-.2-.6-1.4-1.1-2.5-1-1.2.2-2.2-.4-2.5-1.5-.3-.9-.5-1.2-.6-.6z"/><path d="M420.4 458.2c-4.5 3.4-5.1 4-2.9 3.2 2-.8 7.5-5.4 6.4-5.4-.4 0-1.9 1-3.5 2.2zM361.5 462c.4.6 1.1.8 1.6.5 1.4-.9 1.1-1.5-.7-1.5-.8 0-1.2.5-.9 1zM406.9 467.7c-1.3 1.6-1.2 1.7.4.4.9-.7 1.7-1.5 1.7-1.7 0-.8-.8-.3-2.1 1.3zM399 473.1c0 .5.5.7 1 .4.6-.3 1-.8 1-1.1 0-.2-.4-.4-1-.4-.5 0-1 .5-1 1.1zM233.7 482.8c-5.3 5.5-9.1 14.3-9.1 21.7 0 4.8.6 7.4 3.3 12.9 3.6 7.6 6.5 17.8 7.7 27.1.7 5.6.8 5.8 1.7 3.1.5-1.6.6-3.1.1-3.5-.5-.3-1-3.1-1.1-6.2 0-3.5-1-7.6-2.5-11-5.8-12.7-6.4-28.2-1.5-38.2 1.6-3.1 3.5-6.4 4.4-7.3.8-.8 1.3-1.7 1.1-1.9-.2-.3-2.1 1.2-4.1 3.3zM415.6 481.7c-.6 1.4-.5 1.5.5.6.7-.7 1-1.5.7-1.8-.3-.3-.9.2-1.2 1.2zM424.5 483c-.3.5-.1 1 .4 1 .6 0 1.1-.5 1.1-1 0-.6-.2-1-.4-1-.3 0-.8.4-1.1 1zM238.5 555.5c.7 4.5 4.4 16.6 5.5 17.8 1.2 1.4.4-2.9-1.9-10.4-3.3-10.3-4.3-12.3-3.6-7.4zM328 559.9c0 .6-.5 1-1.1.8-.6-.1-1.4.5-1.6 1.3-.4 1.2-.3 1.2.5.2.5-.8 1.2-1.3 1.6-1.2.4.1 1.2 0 1.8-.2.9-.3.9-.6 0-1.2-.7-.4-1.2-.2-1.2.3zM323 567.6c-1.3 3.7-4.8 6-6.3 4-.5-.6-.7-.2-.4 1.1.3 1.6 0 2.3-.9 2.3-.8 0-1.4.4-1.4 1 0 1.7 1.9 1.1 3.8-1 1.7-2.1 1.7-2.1 2.2-.1.4 1.5 1.2.4 3.2-4.4 1.5-3.6 2.3-6.5 1.8-6.5-.5 0-1.4 1.6-2 3.6zM246.2 577.6c.3 1.7 2.1 2.1 2.6.6.1-.5-.4-1.2-1.3-1.6-1.1-.4-1.5-.1-1.3 1zM302.5 580c-.3.5.1 1 1 1s1.3-.5 1-1c-.3-.6-.8-1-1-1-.2 0-.7.4-1 1zM249 581.8c0 1.6 1.6 4.7 7.2 14.2 4.6 7.7 8.9 12.3 19.4 20 12.3 9.2 13 9.5 15.7 7.6 6.2-4.4 6.3-4.4 4.1-6.1-1.9-1.5-1.9-1.5 0-.8 1.6.5 1.8.3 1.3-1.1-.4-1-.7-2-.7-2.3 0-.3-.7 0-1.5.7-1.2 1-1.5 1-1.5-.3 0-.9-.5-1.9-1.2-2.3-.8-.5-.9 0-.6 1.4.6 2.3-1.5 3.2-2.7 1.2-.3-.5-1.2-.7-2-.4-1 .4-1.2 0-.8-1.4.3-1.4-.2-2.4-1.9-3.3l-2.3-1.2 2 2.2 2 2.3-2.7-1.2c-1.9-.9-2.5-1.9-2.3-3.6.1-1.3-.2-2.1-.6-1.8-.5.3-.9 1.2-.9 2s-.4 1.4-1 1.4c-.5 0-1-.4-1-1 0-.5-.3-.9-.7-.9-.5.1-1.6.1-2.7 0-1.5-.1-1.6-.3-.6-1.6 1.2-1.4 1-1.5-1.2-1.1-2 .3-2.7 0-3.1-1.5-.3-1-1.3-1.9-2.2-1.9-.9 0-1.3-.4-1-1 .3-.6-.1-.7-1-.4-1.1.5-1.8 0-2.2-1.5-.3-1.1-1.1-2.1-1.7-2.1-.7 0-2.3-1.8-3.6-3.9-1.4-2.1-2.8-3.7-3.1-3.5-.3.2-1.5-1.6-2.7-3.9-1.2-2.3-2.2-3.6-2.2-2.9zM291.5 585c-.3.5-.1 1 .4 1 .6 0 1.1-.5 1.1-1 0-.6-.2-1-.4-1-.3 0-.8.4-1.1 1zM297.8 584.7c-1.1.3-1.8 1.3-1.7 2.6.1 1.8.2 1.9.6.4.4-1.4.8-1.6 1.8-.7 1.1.9 1.4.7 1.2-.9-.1-1.2-.1-2-.2-2 0 .1-.8.3-1.7.6zM327.5 590.9c-.3.5-.1 1.2.5 1.6.5.3 1-.1 1-.9 0-1.8-.6-2.1-1.5-.7zM298.5 595c.3.5.8 1 1.1 1 .2 0 .4-.5.4-1 0-.6-.5-1-1.1-1-.5 0-.7.4-.4 1zM305 594.5c0 .3.5 1.5 1 2.5 1 1.8.7 1.9-3.1 1.6-3-.3-3.8-.1-3 .7 1.5 1.5 6.4 1.7 7.7.3.8-.9.6-1.8-.7-3.5-1.1-1.3-1.9-2-1.9-1.6zM296.1 598.4c-.9 1.1-.7 1.5.8 1.9 1.4.3 1.7 0 1.4-1.4-.6-2.3-.7-2.3-2.2-.5zM301.8 602.8c1.4 1.1 2.4 3 2.6 5 .3 4.4 1.6 5.3 1.6 1.1 0-3.6-2.9-7.9-5.3-7.9-.7 0-.2.8 1.1 1.8zM300 614c0 .5.5 1 1.1 1 .5 0 .7-.5.4-1-.3-.6-.8-1-1.1-1-.2 0-.4.4-.4 1z"/></svg>